<svg width="81" height="73" viewBox="0 0 81 73" fill="none" xmlns="http://www.w3.org/2000/svg">
<g clip-path="url(#clip0_7_12)">
<path d="M40.5 6.57608C51.3135 6.57608 52.596 6.61258 56.8654 6.789C61.2799 6.9715 65.826 7.87792 69.0424 10.7766C72.2891 13.7027 73.2645 17.7603 73.467 21.751C73.6628 25.5987 73.7032 26.7545 73.7032 36.5C73.7032 46.2455 73.6628 47.4013 73.467 51.249C73.2679 55.2063 72.2385 59.3429 69.0424 62.2234C65.7956 65.1495 61.2968 66.0285 56.8654 66.211C52.596 66.3874 51.3135 66.4239 40.5 66.4239C29.6865 66.4239 28.404 66.3874 24.1346 66.211C19.7775 66.0315 15.1267 65.0825 11.9576 62.2234C8.72775 59.3125 7.7355 55.2154 7.533 51.249C7.33725 47.4013 7.29675 46.2455 7.29675 36.5C7.29675 26.7545 7.33725 25.5987 7.533 21.751C7.73213 17.809 8.77162 13.648 11.9576 10.7766C15.1976 7.85663 19.7167 6.9715 24.1346 6.789C28.404 6.61258 29.6865 6.57608 40.5 6.57608ZM40.5 0C29.5009 0 28.1205 0.0425833 23.8005 0.219C17.5399 0.477542 11.3231 2.04704 6.79725 6.12592C2.2545 10.22 0.529875 15.8106 0.243 21.4498C0.04725 25.3432 0 26.5872 0 36.5C0 46.4128 0.04725 47.6568 0.243 51.5502C0.529875 57.1864 2.27812 62.8043 6.79725 66.8741C11.3366 70.9651 17.55 72.5225 23.8005 72.781C28.1205 72.9574 29.5009 73 40.5 73C51.4991 73 52.8795 72.9574 57.1995 72.781C63.4567 72.5225 69.6803 70.9499 74.2028 66.8741C78.7489 62.777 80.4701 57.1894 80.757 51.5502C80.9528 47.6568 81 46.4128 81 36.5C81 26.5872 80.9528 25.3432 80.757 21.4498C80.4701 15.8075 78.7253 10.2017 74.2028 6.12592C69.6701 2.04096 63.4399 0.4745 57.1995 0.219C52.8795 0.0425833 51.4991 0 40.5 0Z" fill="white"/>
<path d="M40.5 17.7572C29.0149 17.7572 19.7032 26.1492 19.7032 36.5C19.7032 46.8508 29.0149 55.2428 40.5 55.2428C51.9851 55.2428 61.2968 46.8508 61.2968 36.5C61.2968 26.1492 51.9851 17.7572 40.5 17.7572ZM40.5 48.6667C33.0446 48.6667 27 43.219 27 36.5C27 29.781 33.0446 24.3333 40.5 24.3333C47.9554 24.3333 54 29.781 54 36.5C54 43.219 47.9554 48.6667 40.5 48.6667Z" fill="white"/>
<path d="M62.1203 21.3951C64.8044 21.3951 66.9803 19.4341 66.9803 17.0151C66.9803 14.5961 64.8044 12.6351 62.1203 12.6351C59.4362 12.6351 57.2603 14.5961 57.2603 17.0151C57.2603 19.4341 59.4362 21.3951 62.1203 21.3951Z" fill="white"/>
</g>
<defs>
<clipPath id="clip0_7_12">
<rect width="81" height="73" fill="white"/>
</clipPath>
</defs>
</svg>
