<svg width="82" height="80" viewBox="0 0 82 80" fill="none" xmlns="http://www.w3.org/2000/svg">
<g clip-path="url(#clip0_7_20)">
<path d="M41 0C18.3547 0 0 17.8035 0 39.7688C0 61.7341 18.3547 79.5376 41 79.5376C63.6453 79.5376 82 61.7341 82 39.7688C82 17.8035 63.6453 0 41 0ZM28.5093 60.6243H18.5215V29.4798H28.5093V60.6243ZM23.5035 25.2023C20.3093 25.2023 17.711 22.6821 17.711 19.5838C17.711 16.4855 20.3093 13.9653 23.5035 13.9653C26.6977 13.9653 29.2959 16.4855 29.2959 19.5838C29.2959 22.6821 26.6977 25.2023 23.5035 25.2023ZM65.8622 60.6243H55.8983V45.4798C55.8983 41.8728 55.8267 37.2254 50.7017 37.2254C45.5052 37.2254 44.7186 41.1561 44.7186 45.2254V60.6474H34.7547V29.4798H44.3372V33.7341H44.4564C46.411 30.4971 50.0343 28.5549 53.8959 28.6936C64.0029 28.6936 65.8622 35.1445 65.8622 43.5376V60.6243Z" fill="white"/>
</g>
<defs>
<clipPath id="clip0_7_20">
<rect width="82" height="80" fill="white"/>
</clipPath>
</defs>
</svg>
